# xmcd
#
# Track frame offsets:
#	150
#	16975
#	34739
#	53512
#	70437
#	87378
#	104642
#	118157
#	136951
#	152421
#	165926
#	182604
#	195169
#	210746
#	226503
#	242818
#	258914
#	277893
#
# Disc length: 3900 seconds
#
# Revision: 0
# Processed by: cddbd v1.5.2PL0 Copyright (c) Steve Scherf et al.
# Submitted via: EZCDAudioConverter 5.5.0.1
#
DISCID=e40f3a12
DTITLE=Toto Cotugno vs Sergio Facheli - Grandes Éxitos
DYEAR=2005
DGENRE=Balada
TTITLE0=Toto Cotugno  - Enamorados
TTITLE1=Toto Cotugno  - El Italiano
TTITLE2=Toto Cotugno  - Solo Tú Solo Yo
TTITLE3=Toto Cotugno  - El Cielo es Azul
TTITLE4=Toto Cotugno  - Dame el Corazón
TTITLE5=Toto Cotugno  - Cielo Azul y Mar Azul
TTITLE6=Toto Cotugno  - Mía
TTITLE7=Sergio Facheli - Quiéreme tal como Soy
TTITLE8=Sergio Facheli - El único que te entiende
TTITLE9=Sergio Facheli - Respirar mi libertad
TTITLE10=Sergio Facheli - Hay amor de Amores
TTITLE11=Sergio Facheli - Contigo
TTITLE12=Sergio Facheli - No te quiero perder
TTITLE13=Sergio Facheli - Y que se yo que se
TTITLE14=Sergio Facheli - Mientras duermes
TTITLE15=Sergio Facheli - Tú eres
TTITLE16=Sergio Facheli - Viva el amor
TTITLE17=Sergio Facheli - Lo que me tiene Así
EXTD=
EXTT0=
EXTT1=
EXTT2=
EXTT3=
EXTT4=
EXTT5=
EXTT6=
EXTT7=
EXTT8=
EXTT9=
EXTT10=
EXTT11=
EXTT12=
EXTT13=
EXTT14=
EXTT15=
EXTT16=
EXTT17=
PLAYORDER=
